<?xml version="1.0" encoding="utf-8"?>
<!-- Generator: Adobe Illustrator 19.0.0, SVG Export Plug-In . SVG Version: 6.00 Build 0)  -->
<svg version="1.1" id="Layer_1" xmlns="http://www.w3.org/2000/svg" xmlns:xlink="http://www.w3.org/1999/xlink" x="0px" y="0px"
	 viewBox="-726 309 466.3 463" style="enable-background:new -726 309 466.3 463;" xml:space="preserve">
<style type="text/css">
	.st0{fill:#916E00;stroke:#916E00;stroke-width:7;stroke-miterlimit:10;}
</style>
<path d="M-372.2,342.4l-71.9,43.2l-87-73.5c12.4-2,25.2-3.1,38.2-3.1C-448.7,309-407.4,321.2-372.2,342.4z"/>
<path d="M-565.1,410.5l-0.5,0.1l-141.6,38.8c25.2-58.5,74-104.6,134.5-126.5l80.1,67.5L-565.1,410.5z"/>
<path d="M-631.7,465l-48.1,213.9c-29-38.6-46.2-86.5-46.2-138.4c0-17.6,2-34.8,5.8-51.3L-631.7,465z"/>
<path d="M-651.9,709.8c41.7,38.6,97.6,62.2,159,62.2c14.9,0,29.4-1.4,43.5-4.1l-181.3-152.4L-651.9,709.8z"/>
<path d="M-276.6,627.1c-24.5,60.3-73.8,108-135.4,130.6l-74.9-63L-276.6,627.1z"/>
<path d="M-259.7,540.5c0,18.7-2.2,36.9-6.5,54.4l-77.8,25l18.9-100.9l58.4-35.1C-262.2,502-259.7,521-259.7,540.5z"/>
<path class="st0" d="M-431.8,542.5c0,33.5-27.2,60.8-60.8,60.8s-60.8-27.2-60.8-60.8s27.2-60.8,60.8-60.8
	C-459,481.8-431.8,509-431.8,542.5z"/>
</svg>
