<?xml version="1.0" encoding="utf-8"?>
<!-- Generator: Adobe Illustrator 19.0.0, SVG Export Plug-In . SVG Version: 6.00 Build 0)  -->
<svg version="1.1" id="Layer_1" xmlns="http://www.w3.org/2000/svg" xmlns:xlink="http://www.w3.org/1999/xlink" x="0px" y="0px"
	 viewBox="0 0 312.5 312.1" style="enable-background:new 0 0 312.5 312.1;" xml:space="preserve">
<style type="text/css">
	.st0{opacity:0.11;enable-background:new    ;}
	.st1{opacity:0.11;fill:#916E00;stroke:#916E00;stroke-width:7;stroke-miterlimit:10;enable-background:new    ;}
</style>
<path id="XMLID_1999_" class="st0" d="M237.1,22.5L189,51.6L130.7,2.1C139,0.7,147.6,0,156.3,0C185.8,0,213.5,8.3,237.1,22.5z"/>
<path id="XMLID_1998_" class="st0" d="M107.9,68.5l-0.3,0.1l-95,26.1c16.9-39.4,49.6-70.5,90.2-85.3l53.6,45.5L107.9,68.5z"/>
<path id="XMLID_1997_" class="st0" d="M63.2,105.2L31,249.4c-19.4-26-31-58.3-31-93.3c0-11.9,1.3-23.4,3.9-34.6L63.2,105.2z"/>
<path id="XMLID_1996_" class="st0" d="M49.7,270.2c27.9,26,65.4,41.9,106.5,41.9c10,0,19.7-0.9,29.2-2.7L63.9,206.7L49.7,270.2z"/>
<path id="XMLID_1995_" class="st0" d="M301.2,214.4c-16.4,40.6-49.4,72.8-90.7,88L160.3,260L301.2,214.4z"/>
<path id="XMLID_1994_" class="st0" d="M312.5,156.1c0,12.6-1.5,24.9-4.3,36.6l-52.1,16.9l12.6-68l39.1-23.7
	C310.8,130.1,312.5,142.9,312.5,156.1z"/>
<path id="XMLID_1993_" class="st1" d="M205.9,157.5c0,22.6-18.3,41-40.8,41s-40.8-18.3-40.8-41c0-22.6,18.2-41,40.8-41
	C187.7,116.5,205.9,134.8,205.9,157.5z"/>
</svg>
