<?xml version="1.0" encoding="utf-8"?>
<!-- Generator: Adobe Illustrator 19.0.0, SVG Export Plug-In . SVG Version: 6.00 Build 0)  -->
<svg version="1.1" id="Layer_1" xmlns="http://www.w3.org/2000/svg" xmlns:xlink="http://www.w3.org/1999/xlink" x="0px" y="0px"
	 viewBox="0 0 1920 1080" style="enable-background:new 0 0 1920 1080;" xml:space="preserve">
<style type="text/css">
	.st0{fill:none;stroke:#A0871D;stroke-width:0.5;stroke-miterlimit:10;}
</style>
<path id="XMLID_5_" class="st0" d="M1.4,513.2C15,510,27,506,41,503c381-102,742-203,1114-302.4"/>
<path id="XMLID_4_" class="st0" d="M316,78.6C340,54,365,29,388.7,4.5"/>
<line id="XMLID_12646_" class="st0" x1="252.7" y1="27.2" x2="1435.3" y2="382.9"/>
<path id="XMLID_3_" class="st0" d="M193,299.6C145,203,95,107,47.5,9.6"/>
<path id="XMLID_6_" class="st0" d="M504.6,1073C647,927,788,786,933,637c4-3,7-7,11-10.4"/>
<line id="XMLID_12641_" class="st0" x1="686" y1="778.6" x2="1071" y2="607.6"/>
<path id="XMLID_8_" class="st0" d="M1596,593.6c12,40.4,26,78.4,39,118.4c26,84,53,164,80,248c2,6,4,12,6,18c5,11,8,22,11,34
	c8,22,15,44,22.1,65.6"/>
<path id="XMLID_9_" class="st0" d="M618,854.6C784,903,946,954,1114,1006c12,3,23,7,35,10c70,23,138,43,207.3,63.8"/>
</svg>
